<?xml version="1.0" encoding="iso-8859-1"?>
<!-- Uploaded to: SVG Repo, www.svgrepo.com, Generator: SVG Repo Mixer Tools -->
<!DOCTYPE svg PUBLIC "-//W3C//DTD SVG 1.1//EN" "http://www.w3.org/Graphics/SVG/1.1/DTD/svg11.dtd">
<svg fill="#FFFFFF" version="1.1" id="Capa_1" xmlns="http://www.w3.org/2000/svg" xmlns:xlink="http://www.w3.org/1999/xlink" 
	 width="28px" height="28px" viewBox="0 0 194.678 194.678"
	 xml:space="preserve">
<g>
	<g>
		<ellipse cx="80.398" cy="16.606" rx="16.827" ry="16.606"/>
		<path d="M169.993,86.677c-2.342-5.461-7.221-9.568-13.154-10.852v-6.852l12.104-1.322c2.066-0.226,3.719-1.823,4.013-3.882
			l3.235-22.703c0.295-2.059-0.845-4.054-2.767-4.849l-35.842-14.821l0.147-1.045c0.348-2.437-1.346-4.693-3.781-5.04l-3.057-0.437
			c-1.17-0.166-2.357,0.139-3.304,0.848s-1.571,1.766-1.737,2.936l-7.496,52.555c-0.348,2.438,1.348,4.693,3.783,5.041l3.057,0.438
			c2.437,0.347,4.693-1.347,5.041-3.783l0.148-1.045l16.453-1.797v6.358c-4.969,1.712-8.99,5.455-11.047,10.253h-19.428
			c-5.262,0-9.525,4.265-9.525,9.526v7.475H56.112c-0.866-10.716,0.674-23.628,4.358-32.679c2.778,7.496,7.165,13.311,11.44,17.584
			c9.418,9.417,20.146,13.328,20.599,13.49c0.667,0.239,1.349,0.353,2.02,0.353c2.454,0,4.753-1.521,5.637-3.964
			c1.124-3.109-0.487-6.545-3.593-7.68c-1.199-0.438-25.571-9.662-26.915-34.355c5.337-5.531,5.222-14.34-0.28-19.724
			c-5.526-5.409-14.39-5.312-19.797,0.214c-15.594,15.935-23.582,41.449-21.537,66.761h-8.679c-5.262,0-9.526,4.265-9.526,9.525
			v81.475h175v-82v-9v-7.475c0-5.262-4.266-9.526-9.525-9.526H169.993z"/>
	</g>
	<polygon points="33.339,108.961 33.34,108.962 33.339,108.989 	"/>
</g>
</svg>