<?xml version="1.0" encoding="iso-8859-1"?>
<!-- Uploaded to: SVG Repo, www.svgrepo.com, Generator: SVG Repo Mixer Tools -->
<!DOCTYPE svg PUBLIC "-//W3C//DTD SVG 1.1//EN" "http://www.w3.org/Graphics/SVG/1.1/DTD/svg11.dtd">
<svg fill="#000000" version="1.1" id="Capa_1" xmlns="http://www.w3.org/2000/svg" xmlns:xlink="http://www.w3.org/1999/xlink" 
	 width="28px" height="28px" viewBox="0 0 198.744 198.743"
	 xml:space="preserve">
<g>
	<g>
		<ellipse cx="131.847" cy="16.613" rx="16.834" ry="16.613"/>
		<path d="M165.47,113.123v-5.752c1.106-0.79,1.965-1.964,2.334-3.393c0.543-2.101,12.979-51.64-14.863-67.516
			c-0.797-0.454-2.039-0.791-3.256-0.791c-9.182,0-35.981,0.028-35.981,0.028s0-0.014,0-0.013c-2.115-0.016-4.172,1.081-5.282,3.053
			c-5.867,10.428-12.872,16.617-20.816,18.4c-11.104,2.49-20.98-4.388-21.055-4.442c-2.686-1.941-6.438-1.342-8.382,1.343
			c-1.945,2.686-1.344,6.438,1.342,8.382c0.481,0.348,10.213,7.268,23.097,7.268c2.391,0,4.89-0.241,7.458-0.803
			c8.133-1.783,15.338-6.404,21.618-13.781V189.74c0,4.971,4.01,9.003,8.983,9.003s8.985-4.032,8.985-9.003v-68h4.308v68
			c0,4.971,4.015,9.003,8.985,9.003c4.973,0,8.984-4.032,8.984-9.003V51.088c10.586,12.614,6.905,39.427,4.221,49.889
			c-0.738,2.853,0.703,5.754,3.287,6.947v5.199c-3.33,0-6.029,2.7-6.029,6.03v27.942c0,3.329,2.699,6.029,6.029,6.029h6.896
			c3.33,0,6.029-2.7,6.029-6.029v-27.942c0-3.33-2.699-6.03-6.029-6.03H165.47L165.47,113.123z M127.927,43.781
			c0-1.471,1.192-2.663,2.663-2.663h2.552c1.471,0,2.662,1.192,2.662,2.663v2.675c0,1.471-1.191,2.663-2.662,2.663h-2.552
			c-1.471,0-2.663-1.192-2.663-2.663V43.781z M132.966,77.342c-0.643,0.559-1.6,0.559-2.242-0.001l-3.104-2.703
			c-1.101-0.959-1.615-2.426-1.354-3.861l3.326-18.285c0.146-0.813,0.854-1.402,1.68-1.402h1.151c0.825,0,1.532,0.59,1.681,1.402
			l3.326,18.285c0.26,1.437-0.255,2.903-1.354,3.862L132.966,77.342z"/>
		<path d="M69.215,84.197c0-3.33-2.7-6.03-6.03-6.03h-23.88c-3.33,0-6.03,2.7-6.03,6.03v3.94h35.94V84.197z"/>
		<path d="M26.38,140.081c0,3.33,2.7,6.03,6.03,6.03h37.914c3.33,0,6.03-2.7,6.03-6.03v-40.99c0-3.33-2.7-6.03-6.03-6.03H32.412
			c-3.33,0-6.03,2.7-6.03,6.03L26.38,140.081L26.38,140.081z M50.787,104.083c8.58,0,15.535,6.955,15.535,15.534
			c0,8.58-6.955,15.537-15.535,15.537s-15.535-6.957-15.535-15.537C35.25,111.038,42.207,104.083,50.787,104.083z"/>
		<path d="M50.836,121.125h8.503c0.83,0,1.501-0.648,1.501-1.479c0-0.828-0.671-1.478-1.501-1.478h-6.986v-10.058
			c0-0.828-0.711-1.5-1.539-1.5c-0.829,0-1.539,0.672-1.539,1.5v11.505C49.275,120.446,50.007,121.125,50.836,121.125z"/>
	</g>
</g>
</svg>